# xmcd
# Track frame offsets:
# 150
# 16267
# 34650
# 57342
# 79380
# 101607
# 124582
# 147005
# 170047
# 203442
#
# Disc length: 3183 seconds
# Revision: 0
# Processed by: cddbd v1.4PL0 Copyright (c) Steve Scherf et al.
# Submitted via: VisiTrax 2.9.5.181 - For more info visit www.synapsa.com
#
DISCID=7e0c6d0a
DTITLE=Magic Frankie and The Blues Disease - Live Behind Bars
DYEAR=1998
DGENRE=Blues
TTITLE0=Listen Up
TTITLE1=Lay It On Me
TTITLE2=Life Behind Bars
TTITLE3=Luckiest Man
TTITLE4=Miss You
TTITLE5=Reckless Child
TTITLE6=Gilmer Texas
TTITLE7=No Road Back Home
TTITLE8=You Can Make It If You Really Try
TTITLE9=Talk To Me Baby
EXTD=
EXTT0=
EXTT1=
EXTT2=
EXTT3=
EXTT4=
EXTT5=
EXTT6=
EXTT7=
EXTT8=
EXTT9=
PLAYORDER=
